<svg viewBox="0 0 880 453" width="880" height="453" xmlns="http://www.w3.org/2000/svg" role="img" font-family="-apple-system, BlinkMacSystemFont, 'Segoe UI', 'Noto Sans', Helvetica, Arial, sans-serif">
  <title>Agent sessions with and without kmp-test</title>
  <desc>Median per session for Claude Code and Codex CLI, with kmp-test (#0969da) and without (#bc4c00), one block per published scenario. Bars share one scale per column: tool calls, estimated API cost and wall-clock. The last column is the sessions whose key facts were all correct out of the sessions counted.</desc>
  <rect x="1" y="1" width="878" height="451" rx="12" fill="#ffffff" stroke="#d0d7de" stroke-width="1"/>
  <text x="28.0" y="48.0" font-size="20" font-weight="600" fill="#1f2328">Agent sessions with and without kmp-test</text>
  <text x="28.0" y="74.0" font-size="13" font-weight="400" fill="#59636e">Median per session. Each scenario is its own pre-registered campaign on NowInAndroid and compares only</text>
  <text x="28.0" y="91.0" font-size="13" font-weight="400" fill="#59636e">its own two arms; bars share one scale per column.</text>
  <rect x="28.0" y="107.5" width="10.0" height="10" rx="0" fill="#0969da"/>
  <text x="43.0" y="117.0" font-size="12" font-weight="400" fill="#59636e">with kmp-test</text>
  <rect x="140.0" y="107.5" width="10.0" height="10" rx="0" fill="#bc4c00"/>
  <text x="155.0" y="117.0" font-size="12" font-weight="400" fill="#59636e">without</text>
  <text x="196.0" y="147.0" font-size="13" font-weight="600" fill="#1f2328">Tool calls</text>
  <text x="376.0" y="147.0" font-size="13" font-weight="600" fill="#1f2328">Est. API cost</text>
  <text x="556.0" y="147.0" font-size="13" font-weight="600" fill="#1f2328">Wall-clock</text>
  <text x="744.0" y="147.0" font-size="13" font-weight="600" fill="#1f2328">Key facts correct</text>
  <text x="28.0" y="181.0" font-size="14" font-weight="600" fill="#1f2328">1 module · run its tests, check a coverage budget</text>
  <text x="28.0" y="198.0" font-size="12" font-weight="400" fill="#59636e">Evidence2 · 4 + 4 sessions per agent</text>
  <text x="28.0" y="225.0" font-size="13" font-weight="500" fill="#1f2328">Claude Code</text>
  <text x="28.0" y="240.0" font-size="11.5" font-weight="400" fill="#59636e">claude-sonnet-5</text>
  <rect x="196.0" y="214.0" width="26.6" height="11" rx="1" fill="#0969da"/>
  <text x="228.6" y="223.5" font-size="12" font-weight="400" fill="#1f2328">4.5</text>
  <rect x="196.0" y="230.0" width="76.7" height="11" rx="1" fill="#bc4c00"/>
  <text x="278.7" y="239.5" font-size="12" font-weight="400" fill="#1f2328">13</text>
  <rect x="376.0" y="214.0" width="45.6" height="11" rx="1" fill="#0969da"/>
  <text x="427.6" y="223.5" font-size="12" font-weight="400" fill="#1f2328">$0.112</text>
  <rect x="376.0" y="230.0" width="75.0" height="11" rx="1" fill="#bc4c00"/>
  <text x="457.0" y="239.5" font-size="12" font-weight="400" fill="#1f2328">$0.183</text>
  <rect x="556.0" y="214.0" width="82.9" height="11" rx="1" fill="#0969da"/>
  <text x="644.9" y="223.5" font-size="12" font-weight="400" fill="#1f2328">3.5 min</text>
  <rect x="556.0" y="230.0" width="90.7" height="11" rx="1" fill="#bc4c00"/>
  <text x="652.7" y="239.5" font-size="12" font-weight="400" fill="#1f2328">3.8 min</text>
  <text x="744.0" y="223.5" font-size="12" font-weight="600" fill="#0969da">4/4</text>
  <text x="744.0" y="239.5" font-size="12" font-weight="600" fill="#bc4c00">4/4</text>
  <text x="28.0" y="266.0" font-size="13" font-weight="500" fill="#1f2328">Codex CLI</text>
  <text x="28.0" y="281.0" font-size="11.5" font-weight="400" fill="#59636e">gpt-5.6-terra</text>
  <rect x="196.0" y="255.0" width="17.7" height="11" rx="1" fill="#0969da"/>
  <text x="219.7" y="264.5" font-size="12" font-weight="400" fill="#1f2328">3</text>
  <rect x="196.0" y="271.0" width="76.7" height="11" rx="1" fill="#bc4c00"/>
  <text x="278.7" y="280.5" font-size="12" font-weight="400" fill="#1f2328">13</text>
  <rect x="376.0" y="255.0" width="44.3" height="11" rx="1" fill="#0969da"/>
  <text x="426.3" y="264.5" font-size="12" font-weight="400" fill="#1f2328">$0.108</text>
  <rect x="376.0" y="271.0" width="86.5" height="11" rx="1" fill="#bc4c00"/>
  <text x="468.5" y="280.5" font-size="12" font-weight="400" fill="#1f2328">$0.212</text>
  <rect x="556.0" y="255.0" width="105.3" height="11" rx="1" fill="#0969da"/>
  <text x="667.3" y="264.5" font-size="12" font-weight="400" fill="#1f2328">4.5 min</text>
  <rect x="556.0" y="271.0" width="110.0" height="11" rx="1" fill="#bc4c00"/>
  <text x="672.0" y="280.5" font-size="12" font-weight="400" fill="#1f2328">4.7 min</text>
  <text x="744.0" y="264.5" font-size="12" font-weight="600" fill="#0969da">4/4</text>
  <text x="744.0" y="280.5" font-size="12" font-weight="600" fill="#bc4c00">4/4</text>
  <text x="28.0" y="322.0" font-size="14" font-weight="600" fill="#1f2328">11 modules · find the 6 failing tests</text>
  <text x="28.0" y="339.0" font-size="12" font-weight="400" fill="#59636e">Evidence3 · 8 + 7 sessions counted per agent</text>
  <text x="28.0" y="366.0" font-size="13" font-weight="500" fill="#1f2328">Claude Code</text>
  <text x="28.0" y="381.0" font-size="11.5" font-weight="400" fill="#59636e">claude-sonnet-5</text>
  <rect x="196.0" y="355.0" width="17.7" height="11" rx="1" fill="#0969da"/>
  <text x="219.7" y="364.5" font-size="12" font-weight="400" fill="#1f2328">3</text>
  <rect x="196.0" y="371.0" width="70.8" height="11" rx="1" fill="#bc4c00"/>
  <text x="272.8" y="380.5" font-size="12" font-weight="400" fill="#1f2328">12</text>
  <rect x="376.0" y="355.0" width="44.9" height="11" rx="1" fill="#0969da"/>
  <text x="426.9" y="364.5" font-size="12" font-weight="400" fill="#1f2328">$0.110</text>
  <rect x="376.0" y="371.0" width="86.0" height="11" rx="1" fill="#bc4c00"/>
  <text x="468.0" y="380.5" font-size="12" font-weight="400" fill="#1f2328">$0.210</text>
  <rect x="556.0" y="355.0" width="93.3" height="11" rx="1" fill="#0969da"/>
  <text x="655.3" y="364.5" font-size="12" font-weight="400" fill="#1f2328">4.0 min</text>
  <rect x="556.0" y="371.0" width="90.4" height="11" rx="1" fill="#bc4c00"/>
  <text x="652.4" y="380.5" font-size="12" font-weight="400" fill="#1f2328">3.8 min</text>
  <text x="744.0" y="364.5" font-size="12" font-weight="600" fill="#0969da">7/8</text>
  <text x="744.0" y="380.5" font-size="12" font-weight="600" fill="#bc4c00">7/7</text>
  <text x="28.0" y="407.0" font-size="13" font-weight="500" fill="#1f2328">Codex CLI</text>
  <text x="28.0" y="422.0" font-size="11.5" font-weight="400" fill="#59636e">gpt-5.6-terra</text>
  <rect x="196.0" y="396.0" width="23.6" height="11" rx="1" fill="#0969da"/>
  <text x="225.6" y="405.5" font-size="12" font-weight="400" fill="#1f2328">4</text>
  <rect x="196.0" y="412.0" width="118.0" height="11" rx="1" fill="#bc4c00"/>
  <text x="320.0" y="421.5" font-size="12" font-weight="400" fill="#1f2328">20</text>
  <rect x="376.0" y="396.0" width="59.1" height="11" rx="1" fill="#0969da"/>
  <text x="441.1" y="405.5" font-size="12" font-weight="400" fill="#1f2328">$0.145</text>
  <rect x="376.0" y="412.0" width="118.0" height="11" rx="1" fill="#bc4c00"/>
  <text x="500.0" y="421.5" font-size="12" font-weight="400" fill="#1f2328">$0.288</text>
  <rect x="556.0" y="396.0" width="93.6" height="11" rx="1" fill="#0969da"/>
  <text x="655.6" y="405.5" font-size="12" font-weight="400" fill="#1f2328">4.0 min</text>
  <rect x="556.0" y="412.0" width="118.0" height="11" rx="1" fill="#bc4c00"/>
  <text x="680.0" y="421.5" font-size="12" font-weight="400" fill="#1f2328">5.0 min</text>
  <text x="744.0" y="405.5" font-size="12" font-weight="600" fill="#0969da">7/8</text>
  <text x="744.0" y="421.5" font-size="12" font-weight="600" fill="#bc4c00">7/7</text>
</svg>
